<svg width="20" height="20" viewBox="0 0 20 20" fill="none" xmlns="http://www.w3.org/2000/svg">
<path fill-rule="evenodd" clip-rule="evenodd" d="M1.91689 11.6235C2.22056 11.1321 2.75701 10.833 3.33464 10.833C3.48851 10.833 3.67184 10.8328 3.87526 10.8281C3.71068 10.5569 3.56892 10.2706 3.45085 9.97124C2.86561 8.48725 2.90544 6.80411 3.41309 5.20862C3.62817 4.53268 4.2475 4.06693 4.95658 4.04789C5.66565 4.02886 6.30909 4.46071 6.56011 5.12414C6.84031 5.86467 7.1809 6.15675 7.567 6.33256C7.81323 6.44469 8.12173 6.52838 8.52076 6.58392C9.07302 4.67478 10.7969 3.33301 12.918 3.33301C13.5421 3.33301 14.1349 3.47989 14.6236 3.6749C14.8229 3.75444 15.0248 3.84994 15.2201 3.96098L16.4035 3.77079C16.9962 3.67554 17.5943 3.90636 17.9693 4.37508C18.3444 4.84379 18.4384 5.47797 18.2154 6.03533L17.498 7.82893C17.4403 10.6717 16.6302 12.9153 15.0861 14.4594C13.4863 16.0592 11.3402 16.6663 9.16797 16.6663C7.74873 16.6663 6.28202 16.432 5.00732 15.9221C3.75289 15.4204 2.50986 14.5769 1.84393 13.245C1.5856 12.7284 1.61321 12.1148 1.91689 11.6235ZM15.8346 7.49967L16.668 5.41634L14.8161 5.71396C14.8016 5.69996 14.7864 5.68596 14.7707 5.67197C14.3841 5.32936 13.6297 4.99967 12.918 4.99967C11.2513 4.99967 10.0013 6.24967 10.0013 7.91634V8.33301C9.39707 8.33301 8.84151 8.30867 8.33464 8.24066C7.56205 8.137 6.90256 7.93188 6.35616 7.55686C5.77785 7.15994 5.32623 6.57269 5.0013 5.71396C4.70703 6.63881 4.62059 7.54881 4.74198 8.37583C4.86759 9.23165 5.21577 9.99859 5.7865 10.6011C6.22608 11.0652 6.79768 11.4318 7.5013 11.6663C6.91259 12.0588 6.13902 12.2665 5.39825 12.3763C5.3667 12.381 5.33522 12.3855 5.30381 12.3898C4.50673 12.4997 3.75878 12.4997 3.33464 12.4997C3.66784 13.1661 4.26752 13.6993 5.02711 14.0992C6.16721 14.6995 7.66759 14.9997 9.16797 14.9997C12.918 14.9997 15.8346 12.9163 15.8346 7.49967Z" fill="#6C6B80"/>
</svg>
